HIERARCHY
ROOT Hips
{
	OFFSET 0.00 0.00 0.00
	CHANNELS 6 Xposition Yposition Zposition Yrotation Xrotation Zrotation
	JOINT LHipJoint
	{
		OFFSET	0.0000	0.0000	0.0000
		CHANNELS 3 Yrotation Xrotation Zrotation
		JOINT LeftUpLeg
		{
			OFFSET	1.0138	-0.0809	-0.0827
			CHANNELS 3 Yrotation Xrotation Zrotation
			JOINT LeftLeg
			{
				OFFSET	0.4110	-3.9095	0.3245
				CHANNELS 3 Yrotation Xrotation Zrotation
				JOINT LeftFoot
				{
					OFFSET	0.3810	-4.0555	-0.1470
					CHANNELS 3 Yrotation Xrotation Zrotation
					JOINT LeftToeBase
					{
						OFFSET	0.1396	-0.4462	1.3079
						CHANNELS 3 Yrotation Xrotation Zrotation
						End Site
						{
							OFFSET 0.0161 -0.0248 0.1809
						}
					}
				}
			}
		}
	}
	JOINT LowerBack
	{
		OFFSET	0.0000	0.7977	-0.3873
		CHANNELS 3 Yrotation Xrotation Zrotation
		JOINT Spine
		{
			OFFSET	0.0000	1.4131	0.1715
			CHANNELS 3 Yrotation Xrotation Zrotation
			JOINT Spine1
			{
				OFFSET	0.0000	1.4392	-0.1032
				CHANNELS 3 Yrotation Xrotation Zrotation
				JOINT LeftShoulder
				{
					OFFSET	0.2274	1.0382	0.4032
					CHANNELS 3 Yrotation Xrotation Zrotation
					JOINT LeftArm
					{
						OFFSET	1.4730	-0.2267	-0.0231
						CHANNELS 3 Yrotation Xrotation Zrotation
						JOINT LeftForeArm
						{
							OFFSET	1.6131	-1.8059	0.0081
							CHANNELS 3 Yrotation Xrotation Zrotation
							JOINT LeftHand
							{
								OFFSET	1.2197	-1.2423	1.6317
								CHANNELS 3 Yrotation Xrotation Zrotation
								JOINT LThumb
								{
									OFFSET	0.0109	-0.0753	0.4387
									CHANNELS 3 Yrotation Xrotation Zrotation
									End Site
									{
										OFFSET -0.2090 -0.0868 0.2097
									}
								}
								JOINT LeftFingerBase
								{
									OFFSET	0.1071	-0.1567	0.2607
									CHANNELS 3 Yrotation Xrotation Zrotation
									JOINT LeftHandFinger1
									{
										OFFSET	0.1706	-0.2492	0.6830
										CHANNELS 3 Yrotation Xrotation Zrotation
										End Site
										{
											OFFSET 0.0335 -0.1507 0.2071
										}
									}
								}
							}
						}
					}
				}
				JOINT Neck
				{
					OFFSET	0.0000	1.7498	0.2381
					CHANNELS 3 Yrotation Xrotation Zrotation
					JOINT Neck1
					{
						OFFSET	0.0000	0.5043	0.1959
						CHANNELS 3 Yrotation Xrotation Zrotation
						JOINT Head
						{
							OFFSET	0.0000	0.5044	0.1959
							CHANNELS 3 Yrotation Xrotation Zrotation
							End Site
							{
								OFFSET 0.0000 1.4798 -0.0693
							}
						}
					}
				}
				JOINT RightShoulder
				{
					OFFSET	-0.2274	1.0382	0.4032
					CHANNELS 3 Yrotation Xrotation Zrotation
					JOINT RightArm
					{
						OFFSET	-1.4730	-0.2267	-0.0231
						CHANNELS 3 Yrotation Xrotation Zrotation
						JOINT RightForeArm
						{
							OFFSET	-1.6131	-1.8059	0.0081
							CHANNELS 3 Yrotation Xrotation Zrotation
							JOINT RightHand
							{
								OFFSET	-1.2197	-1.2423	1.6317
								CHANNELS 3 Yrotation Xrotation Zrotation
								JOINT RThumb
								{
									OFFSET	-0.0109	-0.0753	0.4387
									CHANNELS 3 Yrotation Xrotation Zrotation
									End Site
									{
										OFFSET 0.2090 -0.0868 0.2097
									}
								}
								JOINT RightFingerBase
								{
									OFFSET	-0.1071	-0.1567	0.2607
									CHANNELS 3 Yrotation Xrotation Zrotation
									JOINT RightHandFinger1
									{
										OFFSET	-0.1706	-0.2492	0.6830
										CHANNELS 3 Yrotation Xrotation Zrotation
										End Site
										{
											OFFSET -0.0335 -0.1507 0.2071
										}
									}
								}
							}
						}
					}
				}
			}
		}
	}
	JOINT RHipJoint
	{
		OFFSET	0.0000	0.0000	0.0000
		CHANNELS 3 Yrotation Xrotation Zrotation
		JOINT RightUpLeg
		{
			OFFSET	-1.0138	-0.0809	-0.0827
			CHANNELS 3 Yrotation Xrotation Zrotation
			JOINT RightLeg
			{
				OFFSET	-0.4110	-3.9095	0.3245
				CHANNELS 3 Yrotation Xrotation Zrotation
				JOINT RightFoot
				{
					OFFSET	-0.3810	-4.0555	-0.1470
					CHANNELS 3 Yrotation Xrotation Zrotation
					JOINT RightToeBase
					{
						OFFSET	-0.1396	-0.4462	1.3079
						CHANNELS 3 Yrotation Xrotation Zrotation
						End Site
						{
							OFFSET -0.0161 -0.0248 0.1809
						}
					}
				}
			}
		}
	}
}
MOTION
Frames: 12
Frame Time: 0.0333333
0.0236 8.6095 0.1105 -6.0957 -3.7297 -4.0178 0.0000 -0.0000 0.0000 33.9453 -13.8128 0.2062 -5.6467 19.9394 3.5427 -8.9537 -4.6459 1.1036 0.0000 -4.9285 0.0000 0.0000 -0.0000 0.0000 0.7596 1.8688 2.4318 1.5912 3.7091 4.6237 -17.4448 1.0012 -3.2145 -20.3141 0.6119 -31.7231 29.9308 30.2124 5.9892 23.2305 -3.4875 -25.4881 25.5061 -2.3861 12.1143 0.8558 13.7936 -3.6900 -6.4529 -3.9078 -2.4908 -0.0793 5.6263 0.4469 -0.1004 5.6216 0.4821 1.6280 -13.1676 -0.9079 15.3469 1.1603 5.6049 29.4912 7.2723 25.0816 -25.4577 26.7561 -3.9255 -16.5352 1.6761 15.2302 -24.4738 -3.2534 -10.2851 -1.2297 13.1402 3.2588 6.6746 -4.1900 2.5322 0.0000 -0.0000 0.0000 -10.3924 2.1448 9.4997 -11.1465 10.6329 -5.3490 -1.0065 -9.5779 -1.1008 -0.0000 -7.2829 0.0000 
0.0177 8.5999 0.0400 -2.3986 -2.9544 -3.7079 0.0000 -0.0000 0.0000 34.0501 -15.8943 -0.4232 -6.0285 21.0169 1.7550 -11.3466 -3.5991 0.7209 0.0000 -4.4104 -0.0000 0.0000 -0.0000 0.0000 0.9484 1.9529 2.4325 1.9631 3.8696 4.6743 -17.5626 0.9471 -3.4484 -20.0569 -0.5630 -30.5700 29.2454 29.7065 5.6576 23.5800 -5.0319 -24.7813 25.5061 -2.3861 12.1143 0.7964 13.8193 -3.7372 -6.4529 -3.9078 -2.4908 0.6153 5.5232 0.1596 0.5755 5.5361 0.1657 3.1335 -13.3934 -1.6114 15.4111 1.2059 5.3735 29.6467 7.9515 24.9507 -25.2175 26.5602 -3.8217 -16.8192 1.6446 15.4644 -24.4738 -3.2534 -10.2851 -1.1967 13.1371 3.2797 6.6715 -4.1932 2.5298 0.0000 -0.0000 0.0000 -14.1228 0.9163 9.2258 -11.4065 11.7760 -5.6014 -0.9652 -10.1702 -1.1037 -0.0000 -7.2829 0.0000 
-0.0042 8.5989 -0.0356 1.5100 -2.3972 -3.3040 0.0000 -0.0000 0.0000 34.1967 -18.1710 -1.0531 -6.5007 22.8158 -0.0110 -11.9190 -2.8274 -2.4311 0.0000 -3.9662 0.0000 0.0000 -0.0000 0.0000 1.0948 2.0663 2.4207 2.2565 4.0883 4.7550 -17.7206 0.8611 -3.8309 -19.9508 -2.0226 -28.9116 28.8876 29.4389 5.4866 23.7875 -5.9779 -22.3005 25.5061 -2.3861 12.1143 0.7210 13.9225 -3.8047 -6.4529 -3.9078 -2.4908 1.8196 5.6934 -0.2640 1.7386 5.7470 -0.3201 5.1189 -13.4502 -2.5760 15.4354 1.2552 5.1487 29.4148 8.8116 24.7020 -24.8454 26.2546 -3.6624 -17.3460 1.7294 15.6578 -24.4738 -3.2534 -10.2851 -1.1317 13.1885 3.3374 6.6581 -4.2070 2.5192 0.0000 -0.0000 0.0000 -18.0000 0.1486 8.9635 -11.5150 12.3744 -5.7238 -1.0288 -10.5244 -1.2377 0.0000 -7.2829 -0.0000 
-0.0430 8.6034 -0.1253 5.3888 -2.0477 -2.9799 0.0000 -0.0000 0.0000 34.5028 -19.5469 -1.3305 -7.1972 24.1088 -1.9061 -9.0138 -2.5082 -4.9733 -0.0000 -3.6812 0.0000 0.0000 -0.0000 0.0000 1.2307 2.2181 2.3848 2.5354 4.3844 4.7763 -17.8437 0.7597 -4.2902 -19.8714 -3.4910 -26.9284 28.4618 29.1176 5.2851 23.9089 -6.6267 -18.7765 25.5061 -2.3861 12.1143 0.5479 14.1835 -3.9565 -6.4529 -3.9078 -2.4908 3.4269 6.1383 -0.7343 3.2858 6.2555 -0.8765 7.4836 -13.1977 -3.7098 15.3974 1.2925 4.9718 28.8475 9.7697 24.3469 -24.3991 25.8849 -3.4737 -18.1290 1.9873 15.8187 -24.4738 -3.2534 -10.2852 -1.0655 13.2557 3.4005 6.6472 -4.2182 2.5106 0.0000 -0.0000 0.0000 -21.8311 -0.2661 8.8918 -11.5325 12.4881 -5.7420 -1.1099 -10.5836 -1.5469 0.0000 -7.2829 -0.0000 
-0.0987 8.6257 -0.2241 8.9322 -1.8747 -2.6307 0.0000 -0.0000 0.0000 34.7647 -19.7484 -0.9233 -7.6471 24.7255 -3.7594 -0.1995 -1.7097 -4.1746 0.0000 -3.7934 0.0000 0.0000 -0.0000 0.0000 1.3972 2.3839 2.3996 2.8667 4.7149 4.6486 -17.8698 0.6665 -4.7352 -19.5585 -4.6513 -24.9166 27.6285 28.4789 4.8968 24.0929 -7.3079 -14.9774 25.5061 -2.3861 12.1143 0.3015 14.5382 -4.1733 -6.4529 -3.9078 -2.4908 5.1953 6.7540 -1.1240 4.9849 6.9494 -1.3583 10.0151 -12.4856 -4.8336 15.3160 1.3129 4.8771 28.1911 10.7971 23.9097 -23.9280 25.4906 -3.2774 -19.1418 2.4503 15.9114 -24.4738 -3.2534 -10.2851 -1.0251 13.2974 3.4391 6.6545 -4.2107 2.5163 0.0000 -0.0000 0.0000 -25.4701 0.0392 8.8932 -11.3791 11.2683 -5.5063 -0.9922 -9.9218 -2.1302 0.0000 -7.2829 -0.0000 
-0.1642 8.6492 -0.3236 12.0534 -1.8377 -2.2507 0.0000 -0.0000 0.0000 34.3789 -19.5896 0.5279 2.5594 25.3336 -1.2688 5.6961 0.0763 -2.9069 0.0179 -5.9766 -0.5865 0.0000 -0.0000 0.0000 1.6086 2.5103 2.4157 3.2786 4.9703 4.4348 -17.8031 0.5903 -5.1417 -18.7813 -5.1192 -23.1695 26.0002 27.1947 4.1627 24.3263 -8.3446 -11.8660 25.5061 -2.3861 12.1143 0.1027 14.8150 -4.3485 -6.4529 -3.9078 -2.4908 6.8023 7.3678 -1.3483 6.5270 7.6424 -1.6589 12.4422 -11.3752 -5.7992 15.2403 1.3158 4.8654 27.6365 11.9091 23.3948 -23.4717 25.1049 -3.0901 -20.3318 3.1130 15.8902 -24.4738 -3.2534 -10.2851 -1.0045 13.3157 3.4580 6.6722 -4.1924 2.5304 0.0000 -0.0000 0.0000 -28.7125 0.4328 8.9119 -11.1520 9.9118 -5.2290 -0.9035 -9.1587 -2.8019 0.0000 -7.2829 -0.0000 
-0.2300 8.6584 -0.4188 14.7433 -1.8893 -2.0883 0.0000 -0.0000 0.0000 34.0807 -19.0231 1.8231 6.0407 26.2516 -0.7812 19.3754 -0.2535 -1.3225 -0.0000 -4.4612 0.0000 0.0000 -0.0000 0.0000 1.8261 2.5506 2.4035 3.7124 5.0515 4.2796 -17.6866 0.5198 -5.5634 -17.6121 -4.7320 -21.7239 23.6674 25.2708 3.1701 24.6881 -9.6474 -9.6611 25.5061 -2.3861 12.1143 -0.0019 14.9677 -4.4394 -6.4529 -3.9078 -2.4908 7.9956 7.8407 -1.4211 7.6699 8.1809 -1.7790 14.5418 -10.1701 -6.5990 15.1910 1.3075 4.9069 27.1436 13.0973 22.7819 -23.0301 24.7280 -2.9116 -21.6357 3.9298 15.7909 -24.4738 -3.2534 -10.2851 -0.9527 13.3399 3.5106 6.6853 -4.1789 2.5407 0.0000 -0.0000 0.0000 -31.4471 0.5177 9.1162 -11.0571 9.3621 -5.1148 -0.8910 -8.7730 -3.3918 0.0000 -7.2829 -0.0000 
-0.2950 8.6554 -0.5103 17.1600 -1.9431 -2.0583 0.0000 -0.0000 0.0000 33.5960 -17.9288 2.9127 8.3505 27.2705 -0.7614 26.8273 -2.2073 -0.3299 -0.0001 -5.0987 0.0000 0.0000 -0.0000 0.0000 1.9882 2.5068 2.4243 4.0410 4.9646 4.2108 -17.5660 0.4405 -6.0352 -16.3670 -3.6082 -20.4398 21.1141 23.0527 2.1685 25.3108 -10.9179 -8.0601 25.5061 -2.3861 12.1143 -0.0624 15.0667 -4.4904 -6.4529 -3.9078 -2.4908 8.7089 8.1158 -1.4204 8.3492 8.5019 -1.7972 16.1971 -9.1627 -7.3157 15.1271 1.2943 4.9728 26.5825 14.3393 22.0652 -22.5164 24.2852 -2.7072 -22.9108 4.8029 15.7254 -24.4738 -3.2534 -10.2851 -0.8550 13.3815 3.6105 6.6879 -4.1762 2.5428 0.0000 -0.0000 0.0000 -33.8940 0.2134 9.4421 -11.1353 9.6248 -5.1781 -0.8540 -8.7777 -3.8919 0.0000 -7.2829 -0.0000 
-0.3555 8.6534 -0.5999 19.6242 -1.9993 -1.9395 0.0000 -0.0000 0.0000 33.1928 -16.3283 3.4736 8.7530 28.1441 -1.2123 29.7102 -6.2092 -0.9917 -0.0000 -6.0197 -0.0000 0.0000 -0.0000 0.0000 2.0772 2.4274 2.5021 4.2280 4.8098 4.1985 -17.4905 0.3487 -6.5267 -15.2534 -1.9042 -19.2912 18.5569 20.7167 1.2604 25.9657 -11.9500 -7.2493 25.5061 -2.3861 12.1143 -0.0921 15.1252 -4.5139 -6.4529 -3.9078 -2.4908 9.0460 8.2210 -1.4157 8.6643 8.6369 -1.7922 17.3801 -8.4460 -7.9958 14.9840 1.2778 5.0555 25.8890 15.6709 21.2827 -21.8163 23.6742 -2.4348 -23.9563 5.5730 15.7983 -24.4738 -3.2534 -10.2851 -0.7656 13.4108 3.7037 6.6730 -4.1916 2.5310 0.0000 -0.0000 0.0000 -36.3880 -0.1549 9.6399 -11.2136 9.9015 -5.2450 -0.8211 -8.7833 -4.3405 0.0000 -7.2829 -0.0000 
-0.4034 8.6470 -0.6826 22.1698 -2.1841 -1.9059 0.0000 -0.0000 0.0000 33.8932 -14.3053 3.7773 10.0212 27.8451 -0.8381 29.5828 -10.4060 -2.1070 -0.0000 -6.8377 -0.0000 0.0000 -0.0000 0.0000 2.1743 2.3483 2.6045 4.4420 4.6493 4.3365 -17.4374 0.2702 -7.0124 -14.3281 0.1391 -18.4027 16.2570 18.5223 0.5299 26.4296 -12.4988 -7.1159 25.5061 -2.3861 12.1143 -0.0494 15.1001 -4.4720 -6.4529 -3.9078 -2.4908 9.1344 8.2421 -1.4301 8.7367 8.6770 -1.7945 18.0991 -7.9915 -8.6048 14.7511 1.2596 5.1483 25.0910 17.1729 20.4898 -20.9470 22.9035 -2.1062 -24.7310 6.0938 16.0462 -24.4738 -3.2534 -10.2851 -0.7221 13.4328 3.7475 6.6435 -4.2221 2.5076 0.0000 -0.0000 0.0000 -38.9442 -0.4919 9.7065 -11.3480 10.4215 -5.3678 -0.7848 -8.9106 -4.6436 0.0000 -7.2829 -0.0000 
-0.4306 8.6363 -0.7578 24.5119 -2.5212 -2.0787 0.0000 -0.0000 0.0000 35.4951 -11.8933 3.6772 9.4436 26.0512 -0.1431 29.6121 -13.4786 -3.5896 -0.0000 -7.3282 0.0000 0.0000 -0.0000 0.0000 2.3808 2.2428 2.7683 4.8800 4.4209 4.7579 -17.2034 0.2771 -7.5449 -13.6359 2.3252 -18.0131 14.4646 16.7543 0.0202 26.6833 -12.7010 -7.2599 25.5061 -2.3861 12.1143 0.0699 14.9711 -4.3625 -6.4529 -3.9078 -2.4908 9.0448 8.2671 -1.4568 8.6349 8.7123 -1.8014 18.4333 -7.7483 -9.0837 14.5009 1.2465 5.2180 24.2655 18.8263 19.6901 -20.1060 22.1453 -1.7988 -25.4310 6.4361 16.3955 -24.4738 -3.2534 -10.2851 -0.7007 13.4978 3.7578 6.6280 -4.2382 2.4953 0.0000 -0.0000 0.0000 -41.2610 -0.6807 9.6765 -11.5243 11.0562 -5.5240 -0.7560 -9.0466 -4.7821 -0.0000 -7.2829 0.0000 
-0.4265 8.6243 -0.8278 26.5024 -2.9266 -2.3951 0.0000 -0.0000 0.0000 36.3609 -9.7501 2.7324 9.6700 22.6704 2.1417 29.6386 -14.3195 -4.9223 -0.0000 -8.2080 0.0000 0.0000 -0.0000 0.0000 2.6762 2.0716 2.9465 5.4782 4.0457 5.3485 -16.5087 0.4583 -8.1979 -13.2986 4.4839 -18.2626 13.3378 15.6186 -0.2725 26.9469 -12.8159 -7.4586 25.5061 -2.3861 12.1143 0.2082 14.7500 -4.2450 -6.4529 -3.9078 -2.4908 8.8249 8.3149 -1.4860 8.4076 8.7615 -1.8069 18.5609 -7.6302 -9.3992 14.3361 1.2440 5.2324 23.4238 20.3640 18.8309 -19.5356 21.6240 -1.5963 -26.2150 6.9367 16.6637 -24.4738 -3.2534 -10.2851 -0.7264 13.5598 3.7163 6.6471 -4.2184 2.5104 0.0000 -0.0000 0.0000 -43.1604 -0.8071 9.4937 -11.6283 11.7007 -5.6665 -0.8573 -9.0770 -4.7241 0.0000 -7.2829 -0.0000 
